<svg id="Layer_1" data-name="Layer 1" xmlns="http://www.w3.org/2000/svg" xmlns:xlink="http://www.w3.org/1999/xlink" viewBox="0 0 227.27 67.53"><defs><style>.cls-1{fill:none;}.cls-2{clip-path:url(#clip-path);}.cls-3{fill:url(#linear-gradient);}.cls-4{clip-path:url(#clip-path-2);}.cls-5{clip-path:url(#clip-path-3);}.cls-6{clip-path:url(#clip-path-4);}.cls-7{clip-path:url(#clip-path-5);}.cls-8{clip-path:url(#clip-path-6);}.cls-9{clip-path:url(#clip-path-7);}.cls-10{clip-path:url(#clip-path-8);}.cls-11{clip-path:url(#clip-path-9);}.cls-12{clip-path:url(#clip-path-10);}</style><clipPath id="clip-path"><path class="cls-1" d="M24.15,43.52a4.65,4.65,0,0,0,2.16,1,1.69,1.69,0,0,0,1.13-.47A1.46,1.46,0,0,0,28,43a2.32,2.32,0,0,0-.77-1.54l-3.59-3.89A5.16,5.16,0,0,1,22,33.93a4.57,4.57,0,0,1,1.9-3.74,7.52,7.52,0,0,1,4.8-1.49,9,9,0,0,1,2.81.37,9.1,9.1,0,0,1,2.55,1.47l-2.72,3.15a4.18,4.18,0,0,0-2.16-.83,1.64,1.64,0,0,0-1.13.48,1.94,1.94,0,0,0-.43,1.06,2.49,2.49,0,0,0,.86,1.46l3.43,3.72a5.8,5.8,0,0,1,1.55,3.89,4.72,4.72,0,0,1-1.84,3.72A7,7,0,0,1,27,48.74a10.91,10.91,0,0,1-3-.39A10.49,10.49,0,0,1,21.12,47Z"/></clipPath><linearGradient id="linear-gradient" x1="50.83" y1="128.56" x2="366.78" y2="128.56" gradientTransform="translate(-41.54 -90.32)" gradientUnits="userSpaceOnUse"><stop offset="0" stop-color="#47257e"/><stop offset="0.1" stop-color="#5a2778"/><stop offset="0.54" stop-color="#a42e62"/><stop offset="0.85" stop-color="#d23253"/><stop offset="1" stop-color="#e4344e"/></linearGradient><clipPath id="clip-path-2"><path class="cls-1" d="M47,28.58a11.13,11.13,0,0,1,7.78,2.91A9.26,9.26,0,0,1,58,38.64a9.39,9.39,0,0,1-3.2,7.22,11.21,11.21,0,0,1-7.87,2.92,11,11,0,0,1-7.71-3A9.41,9.41,0,0,1,36,38.64a9.3,9.3,0,0,1,3.2-7.15A11.24,11.24,0,0,1,47,28.58ZM41.1,38.76a5.3,5.3,0,0,0,1.75,3.93,5.82,5.82,0,0,0,8.2,0,5.42,5.42,0,0,0,0-8A5.66,5.66,0,0,0,47,33a5.71,5.71,0,0,0-4.15,1.69A5.48,5.48,0,0,0,41.1,38.76Z"/></clipPath><clipPath id="clip-path-3"><path class="cls-1" d="M72,33.22l-1,0a6,6,0,0,0-4.19,1.62A5,5,0,0,0,65,38.64a5.25,5.25,0,0,0,1.84,3.94,6,6,0,0,0,4.22,1.72l.9,0v4.41l-1,.07A12.12,12.12,0,0,1,62.92,46a8.8,8.8,0,0,1-3.31-7,9.43,9.43,0,0,1,3.26-7.15,11.16,11.16,0,0,1,7.85-3H72Z"/></clipPath><clipPath id="clip-path-4"><path class="cls-1" d="M77,19.73a3.3,3.3,0,0,1,2.34.91,2.64,2.64,0,0,1,1,2.12,2.75,2.75,0,0,1-.95,2.12,3.41,3.41,0,0,1-2.38.87,3.45,3.45,0,0,1-2.33-.85,2.66,2.66,0,0,1-1-2.14,2.82,2.82,0,0,1,1-2.16A3.41,3.41,0,0,1,77,19.73Zm-2.51,9.4h5.06v19.3H74.48Z"/></clipPath><clipPath id="clip-path-5"><path class="cls-1" d="M93,48.78a11.34,11.34,0,0,1-7.83-2.85,9.11,9.11,0,0,1-3.2-7.09,9.48,9.48,0,0,1,3.29-7.31,11.52,11.52,0,0,1,8-3,10.74,10.74,0,0,1,7.82,3,10.35,10.35,0,0,1,3.07,7.78v9.12h-5v-9a6.52,6.52,0,0,0-1.65-4.66,5.68,5.68,0,0,0-4.36-1.75,6,6,0,0,0-4.24,1.65A5.18,5.18,0,0,0,89,42.62a6.77,6.77,0,0,0,4.64,1.64,8,8,0,0,0,1.6-.13,9.23,9.23,0,0,0,1.91-.73V48a15.23,15.23,0,0,1-2.34.59Z"/></clipPath><clipPath id="clip-path-6"><path class="cls-1" d="M107.39,20.09h5V48.43h-5Z"/></clipPath><clipPath id="clip-path-7"><path class="cls-1" d="M129.79,34,128,33.45l-1.43-.15a7.12,7.12,0,0,0-4.77,1.59,5,5,0,0,0-1.89,4,5,5,0,0,0,1.73,3.81,6.08,6.08,0,0,0,4.24,1.57,6,6,0,0,0,4.33-1.69,5.68,5.68,0,0,0,1.73-4.24V20.09H137V38.48a9.8,9.8,0,0,1-3,7.47,11.07,11.07,0,0,1-8,2.87A11.57,11.57,0,0,1,117.92,46a9.33,9.33,0,0,1-3.09-7.25A9.24,9.24,0,0,1,118,31.59a11.47,11.47,0,0,1,8-2.81l1.68.11,2.17.48Z"/></clipPath><clipPath id="clip-path-8"><path class="cls-1" d="M160.27,40.06a8,8,0,0,1-2.81,6.29,11.88,11.88,0,0,1-14.4,0,8,8,0,0,1-2.81-6.29V29.13h5V39.94a4.2,4.2,0,0,0,1.38,3.26,5.12,5.12,0,0,0,3.59,1.26,5.24,5.24,0,0,0,3.61-1.24,4.15,4.15,0,0,0,1.41-3.28V29.13h5Z"/></clipPath><clipPath id="clip-path-9"><path class="cls-1" d="M163.51,20.09h5l0,16.12h.87a8.46,8.46,0,0,0,5-1.52,5.19,5.19,0,0,0,2.41-3.56l.13-2H182l-.17,2.63a5.59,5.59,0,0,1-1.41,3.58,9.68,9.68,0,0,1-3.74,2.75l1,.51a10.05,10.05,0,0,1,1.38,1A8.51,8.51,0,0,1,182,45.68v2.75h-5l-.08-2.63a4.78,4.78,0,0,0-2.14-4,9.12,9.12,0,0,0-5.51-1.56h-.74v8.22h-5Z"/></clipPath><clipPath id="clip-path-10"><path class="cls-1" d="M195,48.78a11.38,11.38,0,0,1-7.83-2.85,9.11,9.11,0,0,1-3.2-7.09,9.51,9.51,0,0,1,3.29-7.31,11.52,11.52,0,0,1,8-3,10.78,10.78,0,0,1,7.83,3,10.35,10.35,0,0,1,3.07,7.78v9.12h-5.06v-9a6.56,6.56,0,0,0-1.64-4.66,5.7,5.7,0,0,0-4.37-1.75,6,6,0,0,0-4.24,1.65,5.12,5.12,0,0,0-1.77,3.87,5.18,5.18,0,0,0,1.88,4,6.78,6.78,0,0,0,4.65,1.64,8.07,8.07,0,0,0,1.6-.13,9.19,9.19,0,0,0,1.9-.73V48a15.45,15.45,0,0,1-2.33.59Z"/></clipPath></defs><title>socialdukalogo</title><g class="cls-2"><rect class="cls-3" x="9.3" y="7.34" width="208.15" height="61.78" transform="translate(226.74 76.47) rotate(180)"/></g><g class="cls-4"><rect class="cls-3" x="9.3" y="7.34" width="208.15" height="61.78" transform="translate(226.74 76.47) rotate(180)"/></g><g class="cls-5"><rect class="cls-3" x="9.3" y="7.34" width="208.15" height="61.78" transform="translate(226.74 76.47) rotate(180)"/></g><g class="cls-6"><rect class="cls-3" x="9.3" y="7.34" width="208.15" height="61.78" transform="translate(226.74 76.47) rotate(180)"/></g><g class="cls-7"><rect class="cls-3" x="9.3" y="7.34" width="208.15" height="61.78" transform="translate(226.74 76.47) rotate(180)"/></g><g class="cls-8"><rect class="cls-3" x="9.3" y="7.34" width="208.15" height="61.78" transform="translate(226.74 76.47) rotate(180)"/></g><g class="cls-9"><rect class="cls-3" x="9.3" y="7.34" width="208.15" height="61.78" transform="translate(226.74 76.47) rotate(180)"/></g><g class="cls-10"><rect class="cls-3" x="9.3" y="7.34" width="208.15" height="61.78" transform="translate(226.74 76.47) rotate(180)"/></g><g class="cls-11"><rect class="cls-3" x="9.3" y="7.34" width="208.15" height="61.78" transform="translate(226.74 76.47) rotate(180)"/></g><g class="cls-12"><rect class="cls-3" x="9.3" y="7.34" width="208.15" height="61.78" transform="translate(226.74 76.47) rotate(180)"/></g></svg>